<mxfile host="app.diagrams.net" modified="2021-05-24T12:14:21.606Z" agent="5.0 (Windows NT 10.0; Win64; x64) AppleWebKit/537.36 (KHTML, like Gecko) Chrome/90.0.4430.212 Safari/537.36" etag="BhVDhIrsthphRRQUEMLp" version="14.7.0" type="github">
  <diagram name="Page-1" id="9c096ad6-e400-ecc8-3e38-643d2caac077">
    <mxGraphModel dx="2390" dy="1423" grid="1" gridSize="10" guides="1" tooltips="1" connect="1" arrows="1" fold="1" page="1" pageScale="1.5" pageWidth="1169" pageHeight="826" background="none" math="0" shadow="0">
      <root>
        <mxCell id="0" style=";html=1;" />
        <mxCell id="1" style=";html=1;" parent="0" />
        <mxCell id="3cfceab9cabfe5b9-22" style="edgeStyle=none;curved=1;html=1;startSize=10;endArrow=classic;endFill=1;endSize=10;strokeColor=#FF0000;strokeWidth=1;fontSize=12;" parent="1" source="30e23a8a0b95c500-1" target="3cfceab9cabfe5b9-9" edge="1">
          <mxGeometry relative="1" as="geometry" />
        </mxCell>
        <mxCell id="3cfceab9cabfe5b9-26" style="edgeStyle=none;curved=1;html=1;startSize=10;endArrow=classic;endFill=1;endSize=10;strokeColor=#FF0000;strokeWidth=1;fontSize=12;" parent="1" source="30e23a8a0b95c500-1" edge="1">
          <mxGeometry relative="1" as="geometry">
            <mxPoint x="315" y="467.2941176470589" as="targetPoint" />
          </mxGeometry>
        </mxCell>
        <mxCell id="30e23a8a0b95c500-1" value="&lt;table border=&quot;1&quot; width=&quot;100%&quot; style=&quot;width: 100% ; height: 100% ; border-collapse: collapse&quot;&gt;&lt;tbody&gt;&lt;tr&gt;&lt;td colspan=&quot;2&quot; align=&quot;center&quot;&gt;&lt;font style=&quot;font-size: 12px&quot;&gt;UNIX&lt;/font&gt;&lt;/td&gt;&lt;/tr&gt;&lt;tr&gt;&lt;td align=&quot;center&quot;&gt;&lt;font style=&quot;font-size: 12px&quot;&gt;1969&lt;/font&gt;&lt;/td&gt;&lt;td align=&quot;center&quot;&gt;&lt;font style=&quot;font-size: 12px&quot;&gt;Bell Lab&lt;/font&gt;&lt;/td&gt;&lt;/tr&gt;&lt;tr&gt;&lt;td align=&quot;center&quot;&gt;&lt;br&gt;&lt;/td&gt;&lt;td align=&quot;center&quot;&gt;&lt;/td&gt;&lt;/tr&gt;&lt;/tbody&gt;&lt;/table&gt;" style="text;html=1;strokeColor=#FF0000;fillColor=#f5f5f5;overflow=fill;rounded=0;shadow=1;fontSize=12;align=center;" parent="1" vertex="1">
          <mxGeometry x="50" y="420" width="170" height="120" as="geometry" />
        </mxCell>
        <mxCell id="3cfceab9cabfe5b9-9" value="&lt;table border=&quot;1&quot; width=&quot;100%&quot; style=&quot;width: 100% ; height: 100% ; border-collapse: collapse&quot;&gt;&lt;tbody&gt;&lt;tr&gt;&lt;td colspan=&quot;2&quot; align=&quot;center&quot;&gt;&lt;span style=&quot;color: rgb(18 , 18 , 18) ; font-family: , &amp;#34;blinkmacsystemfont&amp;#34; , &amp;#34;helvetica neue&amp;#34; , &amp;#34;pingfang sc&amp;#34; , &amp;#34;microsoft yahei&amp;#34; , &amp;#34;source han sans sc&amp;#34; , &amp;#34;noto sans cjk sc&amp;#34; , &amp;#34;wenquanyi micro hei&amp;#34; , sans-serif ; font-size: 15px ; background-color: rgb(255 , 255 , 255)&quot;&gt;AIX&lt;/span&gt;&lt;br&gt;&lt;/td&gt;&lt;/tr&gt;&lt;tr&gt;&lt;td align=&quot;center&quot;&gt;&lt;span style=&quot;font-family: sans-serif ; font-size: 12.32px ; text-align: left&quot;&gt;1986&lt;/span&gt;&lt;br&gt;&lt;/td&gt;&lt;td align=&quot;center&quot;&gt;IBM&lt;br&gt;&lt;/td&gt;&lt;/tr&gt;&lt;tr&gt;&lt;td align=&quot;center&quot;&gt;&lt;br&gt;&lt;/td&gt;&lt;td align=&quot;center&quot;&gt;&lt;font style=&quot;font-size: 12px&quot;&gt;version 7.2&lt;/font&gt;&lt;/td&gt;&lt;/tr&gt;&lt;/tbody&gt;&lt;/table&gt;" style="text;html=1;strokeColor=#FF0000;fillColor=#f5f5f5;overflow=fill;rounded=0;shadow=1;fontSize=12;align=center;" parent="1" vertex="1">
          <mxGeometry x="290" y="320" width="150" height="90" as="geometry" />
        </mxCell>
        <mxCell id="3cfceab9cabfe5b9-38" style="edgeStyle=none;curved=1;html=1;startSize=10;endArrow=classic;endFill=1;endSize=10;strokeWidth=1;fontSize=12;entryX=0.003;entryY=0.589;entryDx=0;entryDy=0;entryPerimeter=0;" parent="1" source="YBYzwV7j20CpPhmQ1m0J-6" target="YBYzwV7j20CpPhmQ1m0J-11" edge="1">
          <mxGeometry relative="1" as="geometry">
            <mxPoint x="352.43478260869574" y="830" as="sourcePoint" />
            <mxPoint x="564.5652173913045" y="1000" as="targetPoint" />
          </mxGeometry>
        </mxCell>
        <mxCell id="3cfceab9cabfe5b9-58" style="edgeStyle=none;curved=1;html=1;startSize=10;endArrow=classic;endFill=1;endSize=10;strokeWidth=1;fontSize=12;entryX=0;entryY=0.5;entryDx=0;entryDy=0;" parent="1" source="YBYzwV7j20CpPhmQ1m0J-6" target="YBYzwV7j20CpPhmQ1m0J-8" edge="1">
          <mxGeometry relative="1" as="geometry">
            <mxPoint x="390" y="789.9198008849557" as="sourcePoint" />
            <mxPoint x="630" y="770" as="targetPoint" />
          </mxGeometry>
        </mxCell>
        <mxCell id="3cfceab9cabfe5b9-56" style="edgeStyle=none;curved=1;html=1;startSize=10;endArrow=classic;endFill=1;endSize=10;strokeWidth=1;fontSize=12;exitX=1;exitY=0.5;exitDx=0;exitDy=0;entryX=0;entryY=0.5;entryDx=0;entryDy=0;" parent="1" source="YBYzwV7j20CpPhmQ1m0J-6" target="YBYzwV7j20CpPhmQ1m0J-10" edge="1">
          <mxGeometry relative="1" as="geometry">
            <mxPoint x="677" y="1004.9253731343283" as="sourcePoint" />
            <mxPoint x="862" y="943.0746268656717" as="targetPoint" />
          </mxGeometry>
        </mxCell>
        <mxCell id="YBYzwV7j20CpPhmQ1m0J-1" style="edgeStyle=orthogonalEdgeStyle;rounded=0;orthogonalLoop=1;jettySize=auto;html=1;exitX=0.5;exitY=1;exitDx=0;exitDy=0;" edge="1" parent="1" source="30e23a8a0b95c500-1" target="30e23a8a0b95c500-1">
          <mxGeometry relative="1" as="geometry" />
        </mxCell>
        <mxCell id="YBYzwV7j20CpPhmQ1m0J-3" value="&lt;table border=&quot;1&quot; width=&quot;100%&quot; style=&quot;width: 100% ; height: 100% ; border-collapse: collapse&quot;&gt;&lt;tbody&gt;&lt;tr&gt;&lt;td colspan=&quot;2&quot; align=&quot;center&quot;&gt;&lt;span style=&quot;color: rgb(18 , 18 , 18) ; font-family: , &amp;#34;blinkmacsystemfont&amp;#34; , &amp;#34;helvetica neue&amp;#34; , &amp;#34;pingfang sc&amp;#34; , &amp;#34;microsoft yahei&amp;#34; , &amp;#34;source han sans sc&amp;#34; , &amp;#34;noto sans cjk sc&amp;#34; , &amp;#34;wenquanyi micro hei&amp;#34; , sans-serif ; font-size: 15px ; background-color: rgb(255 , 255 , 255)&quot;&gt;HP-UX&lt;/span&gt;&lt;br&gt;&lt;/td&gt;&lt;/tr&gt;&lt;tr&gt;&lt;td align=&quot;center&quot;&gt;&lt;span style=&quot;font-family: sans-serif ; font-size: 12.32px ; text-align: left&quot;&gt;1982&lt;/span&gt;&lt;br&gt;&lt;/td&gt;&lt;td align=&quot;center&quot;&gt;HP&lt;/td&gt;&lt;/tr&gt;&lt;tr&gt;&lt;td align=&quot;center&quot;&gt;&lt;br&gt;&lt;/td&gt;&lt;td align=&quot;center&quot;&gt;version&amp;nbsp;11i v3&lt;br&gt;&lt;/td&gt;&lt;/tr&gt;&lt;/tbody&gt;&lt;/table&gt;" style="text;html=1;strokeColor=#FF0000;fillColor=#f5f5f5;overflow=fill;rounded=0;shadow=1;fontSize=12;align=center;" vertex="1" parent="1">
          <mxGeometry x="315" y="435" width="150" height="90" as="geometry" />
        </mxCell>
        <mxCell id="YBYzwV7j20CpPhmQ1m0J-4" value="&lt;table border=&quot;1&quot; width=&quot;100%&quot; style=&quot;width: 100% ; height: 100% ; border-collapse: collapse&quot;&gt;&lt;tbody&gt;&lt;tr&gt;&lt;td colspan=&quot;2&quot; align=&quot;center&quot;&gt;&lt;font color=&quot;#121212&quot;&gt;&lt;span style=&quot;font-size: 15px&quot;&gt;Solaris&lt;/span&gt;&lt;/font&gt;&lt;br&gt;&lt;/td&gt;&lt;/tr&gt;&lt;tr&gt;&lt;td align=&quot;center&quot; style=&quot;text-align: left&quot;&gt;&lt;font face=&quot;sans-serif&quot;&gt;&lt;span style=&quot;font-size: 12.32px&quot;&gt;1992&lt;/span&gt;&lt;/font&gt;&lt;br&gt;&lt;/td&gt;&lt;td align=&quot;center&quot;&gt;&lt;span&gt;	&lt;/span&gt;Sun Microsystems/Oracle&lt;br&gt;&lt;/td&gt;&lt;/tr&gt;&lt;tr&gt;&lt;td align=&quot;center&quot;&gt;&lt;br&gt;&lt;/td&gt;&lt;td align=&quot;center&quot;&gt;version&amp;nbsp;11.4&lt;br&gt;&lt;/td&gt;&lt;/tr&gt;&lt;/tbody&gt;&lt;/table&gt;" style="text;html=1;strokeColor=#FF0000;fillColor=#f5f5f5;overflow=fill;rounded=0;shadow=1;fontSize=12;align=center;" vertex="1" parent="1">
          <mxGeometry x="315" y="544" width="185" height="90" as="geometry" />
        </mxCell>
        <mxCell id="YBYzwV7j20CpPhmQ1m0J-5" style="edgeStyle=none;curved=1;html=1;startSize=10;endArrow=classic;endFill=1;endSize=10;strokeColor=#FF0000;strokeWidth=1;fontSize=12;exitX=1;exitY=0.75;exitDx=0;exitDy=0;" edge="1" parent="1" source="30e23a8a0b95c500-1">
          <mxGeometry relative="1" as="geometry">
            <mxPoint x="230" y="484" as="sourcePoint" />
            <mxPoint x="320" y="590" as="targetPoint" />
          </mxGeometry>
        </mxCell>
        <mxCell id="YBYzwV7j20CpPhmQ1m0J-6" value="&lt;table border=&quot;1&quot; width=&quot;100%&quot; style=&quot;width: 100% ; height: 100% ; border-collapse: collapse&quot;&gt;&lt;tbody&gt;&lt;tr&gt;&lt;td colspan=&quot;2&quot; align=&quot;center&quot;&gt;&lt;font color=&quot;#121212&quot;&gt;&lt;span style=&quot;font-size: 15px&quot;&gt;Linux&amp;nbsp;&lt;/span&gt;&lt;span style=&quot;font-size: 15px&quot;&gt;kernel&amp;nbsp;&lt;/span&gt;&lt;/font&gt;&lt;br&gt;&lt;/td&gt;&lt;/tr&gt;&lt;tr&gt;&lt;td align=&quot;center&quot; style=&quot;text-align: left&quot;&gt;&lt;font face=&quot;sans-serif&quot;&gt;&lt;span style=&quot;font-size: 12.32px&quot;&gt;1991&lt;/span&gt;&lt;/font&gt;&lt;br&gt;&lt;/td&gt;&lt;td align=&quot;center&quot;&gt;&lt;span&gt;	&lt;/span&gt;Linus&lt;br&gt;&lt;/td&gt;&lt;/tr&gt;&lt;tr&gt;&lt;td align=&quot;center&quot;&gt;&lt;br&gt;&lt;/td&gt;&lt;td align=&quot;center&quot;&gt;version 5.12.6&lt;br&gt;&lt;/td&gt;&lt;/tr&gt;&lt;/tbody&gt;&lt;/table&gt;" style="text;html=1;strokeColor=#FF0000;fillColor=#f5f5f5;overflow=fill;rounded=0;shadow=1;fontSize=12;align=center;" vertex="1" parent="1">
          <mxGeometry x="80" y="750" width="150" height="90" as="geometry" />
        </mxCell>
        <mxCell id="YBYzwV7j20CpPhmQ1m0J-7" value="" style="endArrow=none;dashed=1;html=1;dashPattern=1 3;strokeWidth=2;exitX=0.5;exitY=1;exitDx=0;exitDy=0;" edge="1" parent="1" source="30e23a8a0b95c500-1" target="YBYzwV7j20CpPhmQ1m0J-6">
          <mxGeometry width="50" height="50" relative="1" as="geometry">
            <mxPoint x="550" y="700" as="sourcePoint" />
            <mxPoint x="600" y="650" as="targetPoint" />
          </mxGeometry>
        </mxCell>
        <mxCell id="YBYzwV7j20CpPhmQ1m0J-8" value="&lt;table border=&quot;1&quot; width=&quot;100%&quot; style=&quot;width: 100% ; height: 100% ; border-collapse: collapse&quot;&gt;&lt;tbody&gt;&lt;tr&gt;&lt;td colspan=&quot;2&quot; align=&quot;center&quot;&gt;&lt;font color=&quot;#121212&quot;&gt;&lt;span style=&quot;font-size: 15px&quot;&gt;Debian&lt;/span&gt;&lt;/font&gt;&lt;br&gt;&lt;/td&gt;&lt;/tr&gt;&lt;tr&gt;&lt;td align=&quot;center&quot; style=&quot;text-align: left&quot;&gt;&lt;font face=&quot;sans-serif&quot;&gt;&lt;span style=&quot;font-size: 12.32px&quot;&gt;1993&lt;/span&gt;&lt;/font&gt;&lt;br&gt;&lt;/td&gt;&lt;td align=&quot;center&quot;&gt;&lt;span&gt;	&lt;/span&gt;&amp;nbsp;Ian Murdock/Debian Project Leader&lt;br&gt;&lt;/td&gt;&lt;/tr&gt;&lt;tr&gt;&lt;td align=&quot;center&quot;&gt;&lt;br&gt;&lt;/td&gt;&lt;td align=&quot;center&quot;&gt;version&amp;nbsp;10.0&lt;br&gt;&lt;/td&gt;&lt;/tr&gt;&lt;/tbody&gt;&lt;/table&gt;" style="text;html=1;strokeColor=#FF0000;fillColor=#f5f5f5;overflow=fill;rounded=0;shadow=1;fontSize=12;align=center;" vertex="1" parent="1">
          <mxGeometry x="400" y="720" width="240" height="90" as="geometry" />
        </mxCell>
        <mxCell id="YBYzwV7j20CpPhmQ1m0J-9" value="&lt;table border=&quot;1&quot; width=&quot;100%&quot; style=&quot;width: 100% ; height: 100% ; border-collapse: collapse&quot;&gt;&lt;tbody&gt;&lt;tr&gt;&lt;td colspan=&quot;2&quot; align=&quot;center&quot;&gt;&lt;font color=&quot;#121212&quot;&gt;&lt;span style=&quot;font-size: 15px&quot;&gt;Ubuntu&lt;/span&gt;&lt;/font&gt;&lt;br&gt;&lt;/td&gt;&lt;/tr&gt;&lt;tr&gt;&lt;td align=&quot;center&quot; style=&quot;text-align: left&quot;&gt;&lt;font face=&quot;sans-serif&quot;&gt;&lt;span style=&quot;font-size: 12.32px&quot;&gt;2004&lt;/span&gt;&lt;/font&gt;&lt;br&gt;&lt;/td&gt;&lt;td align=&quot;center&quot;&gt;&lt;span&gt;	&lt;/span&gt;&amp;nbsp;	Canonical Ltd&lt;br&gt;&lt;/td&gt;&lt;/tr&gt;&lt;tr&gt;&lt;td align=&quot;center&quot;&gt;&lt;br&gt;&lt;/td&gt;&lt;td align=&quot;center&quot;&gt;version&amp;nbsp; 21.04&lt;br&gt;&lt;/td&gt;&lt;/tr&gt;&lt;/tbody&gt;&lt;/table&gt;" style="text;html=1;strokeColor=#FF0000;fillColor=#f5f5f5;overflow=fill;rounded=0;shadow=1;fontSize=12;align=center;" vertex="1" parent="1">
          <mxGeometry x="720" y="634" width="240" height="90" as="geometry" />
        </mxCell>
        <mxCell id="YBYzwV7j20CpPhmQ1m0J-10" value="&lt;table border=&quot;1&quot; width=&quot;100%&quot; style=&quot;width: 100% ; height: 100% ; border-collapse: collapse&quot;&gt;&lt;tbody&gt;&lt;tr&gt;&lt;td colspan=&quot;2&quot; align=&quot;center&quot;&gt;&lt;font color=&quot;#121212&quot;&gt;&lt;span style=&quot;font-size: 15px&quot;&gt;Red Hat Linux&lt;/span&gt;&lt;/font&gt;&lt;br&gt;&lt;/td&gt;&lt;/tr&gt;&lt;tr&gt;&lt;td align=&quot;center&quot; style=&quot;text-align: left&quot;&gt;&lt;font face=&quot;sans-serif&quot;&gt;&lt;span style=&quot;font-size: 12.32px&quot;&gt;1995&lt;/span&gt;&lt;/font&gt;&lt;br&gt;&lt;/td&gt;&lt;td align=&quot;center&quot;&gt;&lt;span&gt;	&lt;/span&gt;&amp;nbsp;Red Hat&lt;br&gt;&lt;/td&gt;&lt;/tr&gt;&lt;tr&gt;&lt;td align=&quot;center&quot;&gt;2003&lt;/td&gt;&lt;td align=&quot;center&quot;&gt;version&amp;nbsp; 9&lt;br&gt;&lt;/td&gt;&lt;/tr&gt;&lt;/tbody&gt;&lt;/table&gt;" style="text;html=1;strokeColor=#FF0000;fillColor=#f5f5f5;overflow=fill;rounded=0;shadow=1;fontSize=12;align=center;" vertex="1" parent="1">
          <mxGeometry x="400" y="890" width="185" height="90" as="geometry" />
        </mxCell>
        <mxCell id="YBYzwV7j20CpPhmQ1m0J-11" value="&lt;table border=&quot;1&quot; width=&quot;100%&quot; style=&quot;width: 100% ; height: 100% ; border-collapse: collapse&quot;&gt;&lt;tbody&gt;&lt;tr&gt;&lt;td colspan=&quot;2&quot; align=&quot;center&quot;&gt;&lt;font color=&quot;#121212&quot;&gt;&lt;span style=&quot;font-size: 15px&quot;&gt;SUSE Linux Enterprise Server&lt;/span&gt;&lt;/font&gt;&lt;br&gt;&lt;/td&gt;&lt;/tr&gt;&lt;tr&gt;&lt;td align=&quot;center&quot; style=&quot;text-align: left&quot;&gt;&lt;font face=&quot;sans-serif&quot;&gt;&lt;span style=&quot;font-size: 12.32px&quot;&gt;2000&lt;/span&gt;&lt;/font&gt;&lt;/td&gt;&lt;td align=&quot;center&quot;&gt;&amp;nbsp;SUSE&lt;br&gt;&lt;/td&gt;&lt;/tr&gt;&lt;tr&gt;&lt;td align=&quot;center&quot;&gt;&lt;br&gt;&lt;/td&gt;&lt;td align=&quot;center&quot;&gt;version 15&lt;br&gt;&lt;/td&gt;&lt;/tr&gt;&lt;/tbody&gt;&lt;/table&gt;" style="text;html=1;strokeColor=#FF0000;fillColor=#f5f5f5;overflow=fill;rounded=0;shadow=1;fontSize=12;align=center;" vertex="1" parent="1">
          <mxGeometry x="390" y="1170" width="240" height="90" as="geometry" />
        </mxCell>
        <mxCell id="YBYzwV7j20CpPhmQ1m0J-12" style="edgeStyle=none;curved=1;html=1;startSize=10;endArrow=classic;endFill=1;endSize=10;strokeWidth=1;fontSize=12;" edge="1" parent="1" source="YBYzwV7j20CpPhmQ1m0J-8" target="YBYzwV7j20CpPhmQ1m0J-9">
          <mxGeometry relative="1" as="geometry">
            <mxPoint x="240" y="794.9193548387098" as="sourcePoint" />
            <mxPoint x="470" y="710" as="targetPoint" />
          </mxGeometry>
        </mxCell>
        <mxCell id="YBYzwV7j20CpPhmQ1m0J-13" value="&lt;table border=&quot;1&quot; width=&quot;100%&quot; style=&quot;width: 100% ; height: 100% ; border-collapse: collapse&quot;&gt;&lt;tbody&gt;&lt;tr&gt;&lt;td colspan=&quot;2&quot; align=&quot;center&quot;&gt;&lt;font color=&quot;#121212&quot;&gt;&lt;span style=&quot;font-size: 15px&quot;&gt;BSD&lt;/span&gt;&lt;/font&gt;&lt;br&gt;&lt;/td&gt;&lt;/tr&gt;&lt;tr&gt;&lt;td align=&quot;center&quot;&gt;&lt;span style=&quot;font-family: sans-serif ; font-size: 12.32px ; text-align: left&quot;&gt;1977&lt;/span&gt;&lt;br&gt;&lt;/td&gt;&lt;td align=&quot;center&quot;&gt;Bob Fabry/&lt;br&gt;Computer Systems Research Group&lt;br&gt;&lt;/td&gt;&lt;/tr&gt;&lt;tr&gt;&lt;td align=&quot;center&quot;&gt;&lt;span style=&quot;font-family: sans-serif ; font-size: 12.32px ; text-align: left&quot;&gt;1995&lt;/span&gt;&lt;br&gt;&lt;/td&gt;&lt;td align=&quot;center&quot;&gt;&lt;font style=&quot;font-size: 12px&quot;&gt;version 4.4&lt;/font&gt;&lt;/td&gt;&lt;/tr&gt;&lt;/tbody&gt;&lt;/table&gt;" style="text;html=1;strokeColor=#FF0000;fillColor=#f5f5f5;overflow=fill;rounded=0;shadow=1;fontSize=12;align=center;" vertex="1" parent="1">
          <mxGeometry x="250" y="160" width="240" height="90" as="geometry" />
        </mxCell>
        <mxCell id="YBYzwV7j20CpPhmQ1m0J-14" style="edgeStyle=none;curved=1;html=1;startSize=10;endArrow=classic;endFill=1;endSize=10;strokeColor=#FF0000;strokeWidth=1;fontSize=12;exitX=0.5;exitY=0;exitDx=0;exitDy=0;entryX=0;entryY=0.75;entryDx=0;entryDy=0;" edge="1" parent="1" source="30e23a8a0b95c500-1" target="YBYzwV7j20CpPhmQ1m0J-13">
          <mxGeometry relative="1" as="geometry">
            <mxPoint x="230" y="447.5" as="sourcePoint" />
            <mxPoint x="300" y="412.5" as="targetPoint" />
          </mxGeometry>
        </mxCell>
        <mxCell id="YBYzwV7j20CpPhmQ1m0J-15" style="edgeStyle=none;curved=1;html=1;startSize=10;endArrow=classic;endFill=1;endSize=10;strokeColor=#FF0000;strokeWidth=1;fontSize=12;entryX=0;entryY=0.5;entryDx=0;entryDy=0;" edge="1" parent="1" source="YBYzwV7j20CpPhmQ1m0J-13" target="YBYzwV7j20CpPhmQ1m0J-16">
          <mxGeometry relative="1" as="geometry">
            <mxPoint x="560" y="222.5" as="sourcePoint" />
            <mxPoint x="745" y="49.999999999999886" as="targetPoint" />
          </mxGeometry>
        </mxCell>
        <mxCell id="YBYzwV7j20CpPhmQ1m0J-16" value="&lt;table border=&quot;1&quot; width=&quot;100%&quot; style=&quot;width: 100% ; height: 100% ; border-collapse: collapse&quot;&gt;&lt;tbody&gt;&lt;tr&gt;&lt;td colspan=&quot;2&quot; align=&quot;center&quot;&gt;&lt;font color=&quot;#121212&quot;&gt;&lt;span style=&quot;font-size: 15px&quot;&gt;FreeBSD&lt;/span&gt;&lt;/font&gt;&lt;br&gt;&lt;/td&gt;&lt;/tr&gt;&lt;tr&gt;&lt;td align=&quot;center&quot; style=&quot;text-align: left&quot;&gt;&lt;font face=&quot;sans-serif&quot;&gt;&lt;span style=&quot;font-size: 12.32px&quot;&gt;1993&lt;/span&gt;&lt;/font&gt;&lt;br&gt;&lt;/td&gt;&lt;td align=&quot;center&quot;&gt;&amp;nbsp;William Jolitz and Lynne Jolitz /The FreeBSD Project&lt;br&gt;&lt;/td&gt;&lt;/tr&gt;&lt;tr&gt;&lt;td align=&quot;center&quot;&gt;&lt;br&gt;&lt;/td&gt;&lt;td align=&quot;center&quot;&gt;&lt;font style=&quot;font-size: 12px&quot;&gt;version 13&lt;/font&gt;&lt;/td&gt;&lt;/tr&gt;&lt;/tbody&gt;&lt;/table&gt;" style="text;html=1;strokeColor=#FF0000;fillColor=#f5f5f5;overflow=fill;rounded=0;shadow=1;fontSize=12;align=center;" vertex="1" parent="1">
          <mxGeometry x="650" y="160" width="380" height="90" as="geometry" />
        </mxCell>
        <mxCell id="YBYzwV7j20CpPhmQ1m0J-17" value="&lt;table border=&quot;1&quot; width=&quot;100%&quot; style=&quot;width: 100% ; height: 100% ; border-collapse: collapse&quot;&gt;&lt;tbody&gt;&lt;tr&gt;&lt;td colspan=&quot;2&quot; align=&quot;center&quot;&gt;&lt;font color=&quot;#121212&quot;&gt;&lt;span style=&quot;font-size: 15px&quot;&gt;Red Hat Enterprise Linux&lt;/span&gt;&lt;/font&gt;&lt;br&gt;&lt;/td&gt;&lt;/tr&gt;&lt;tr&gt;&lt;td align=&quot;center&quot; style=&quot;text-align: left&quot;&gt;&lt;font face=&quot;sans-serif&quot;&gt;&lt;span style=&quot;font-size: 12.32px&quot;&gt;2000&lt;/span&gt;&lt;/font&gt;&lt;br&gt;&lt;/td&gt;&lt;td align=&quot;center&quot;&gt;&lt;span&gt;	&lt;/span&gt;&amp;nbsp;Red Hat&lt;br&gt;&lt;/td&gt;&lt;/tr&gt;&lt;tr&gt;&lt;td align=&quot;center&quot;&gt;&lt;br&gt;&lt;/td&gt;&lt;td align=&quot;center&quot;&gt;version&amp;nbsp; 8&lt;br&gt;&lt;/td&gt;&lt;/tr&gt;&lt;/tbody&gt;&lt;/table&gt;" style="text;html=1;strokeColor=#FF0000;fillColor=#f5f5f5;overflow=fill;rounded=0;shadow=1;fontSize=12;align=center;" vertex="1" parent="1">
          <mxGeometry x="980" y="1020" width="240" height="90" as="geometry" />
        </mxCell>
        <mxCell id="YBYzwV7j20CpPhmQ1m0J-18" style="edgeStyle=none;curved=1;html=1;startSize=10;endArrow=classic;endFill=1;endSize=10;strokeWidth=1;fontSize=12;entryX=0;entryY=0.5;entryDx=0;entryDy=0;exitX=1;exitY=0.5;exitDx=0;exitDy=0;" edge="1" parent="1" source="YBYzwV7j20CpPhmQ1m0J-20" target="YBYzwV7j20CpPhmQ1m0J-17">
          <mxGeometry relative="1" as="geometry">
            <mxPoint x="240" y="804.9999999999998" as="sourcePoint" />
            <mxPoint x="475" y="934.9999999999998" as="targetPoint" />
          </mxGeometry>
        </mxCell>
        <mxCell id="YBYzwV7j20CpPhmQ1m0J-20" value="&lt;table border=&quot;1&quot; width=&quot;100%&quot; style=&quot;width: 100% ; height: 100% ; border-collapse: collapse&quot;&gt;&lt;tbody&gt;&lt;tr&gt;&lt;td colspan=&quot;2&quot; align=&quot;center&quot;&gt;&lt;font color=&quot;#121212&quot;&gt;&lt;span style=&quot;font-size: 15px&quot;&gt;Fedora&lt;/span&gt;&lt;/font&gt;&lt;br&gt;&lt;/td&gt;&lt;/tr&gt;&lt;tr&gt;&lt;td align=&quot;center&quot; style=&quot;text-align: left&quot;&gt;&lt;font face=&quot;sans-serif&quot;&gt;&lt;span style=&quot;font-size: 12.32px&quot;&gt;2003&lt;/span&gt;&lt;/font&gt;&lt;br&gt;&lt;/td&gt;&lt;td align=&quot;center&quot;&gt;&lt;span&gt;	&lt;/span&gt;&amp;nbsp;Red Hat/IBM&lt;br&gt;&lt;/td&gt;&lt;/tr&gt;&lt;tr&gt;&lt;td align=&quot;center&quot;&gt;&lt;br&gt;&lt;/td&gt;&lt;td align=&quot;center&quot;&gt;version&amp;nbsp; 34&lt;br&gt;&lt;/td&gt;&lt;/tr&gt;&lt;/tbody&gt;&lt;/table&gt;" style="text;html=1;strokeColor=#FF0000;fillColor=#f5f5f5;overflow=fill;rounded=0;shadow=1;fontSize=12;align=center;" vertex="1" parent="1">
          <mxGeometry x="630" y="1020" width="185" height="90" as="geometry" />
        </mxCell>
        <mxCell id="YBYzwV7j20CpPhmQ1m0J-21" style="edgeStyle=none;curved=1;html=1;startSize=10;endArrow=classic;endFill=1;endSize=10;strokeWidth=1;fontSize=12;entryX=0;entryY=0.5;entryDx=0;entryDy=0;" edge="1" parent="1" source="YBYzwV7j20CpPhmQ1m0J-10" target="YBYzwV7j20CpPhmQ1m0J-20">
          <mxGeometry relative="1" as="geometry">
            <mxPoint x="240" y="804.9999999999998" as="sourcePoint" />
            <mxPoint x="475" y="934.9999999999998" as="targetPoint" />
          </mxGeometry>
        </mxCell>
        <mxCell id="YBYzwV7j20CpPhmQ1m0J-22" value="&lt;table border=&quot;1&quot; width=&quot;100%&quot; style=&quot;width: 100% ; height: 100% ; border-collapse: collapse&quot;&gt;&lt;tbody&gt;&lt;tr&gt;&lt;td colspan=&quot;2&quot; align=&quot;center&quot;&gt;&lt;font color=&quot;#121212&quot;&gt;&lt;span style=&quot;font-size: 15px&quot;&gt;CentOS&lt;/span&gt;&lt;/font&gt;&lt;br&gt;&lt;/td&gt;&lt;/tr&gt;&lt;tr&gt;&lt;td align=&quot;center&quot; style=&quot;text-align: left&quot;&gt;&lt;font face=&quot;sans-serif&quot;&gt;&lt;span style=&quot;font-size: 12.32px&quot;&gt;2004&lt;/span&gt;&lt;/font&gt;&lt;br&gt;&lt;/td&gt;&lt;td align=&quot;center&quot;&gt;&lt;span&gt;	&lt;/span&gt;The CentOS Project&lt;br&gt;&lt;/td&gt;&lt;/tr&gt;&lt;tr&gt;&lt;td align=&quot;center&quot;&gt;&lt;br&gt;&lt;/td&gt;&lt;td align=&quot;center&quot;&gt;version&amp;nbsp; 8.3.2011&lt;br&gt;&lt;/td&gt;&lt;/tr&gt;&lt;/tbody&gt;&lt;/table&gt;" style="text;html=1;strokeColor=#FF0000;fillColor=#f5f5f5;overflow=fill;rounded=0;shadow=1;fontSize=12;align=center;" vertex="1" parent="1">
          <mxGeometry x="1120" y="810" width="185" height="90" as="geometry" />
        </mxCell>
        <mxCell id="YBYzwV7j20CpPhmQ1m0J-23" style="edgeStyle=none;curved=1;html=1;startSize=10;endArrow=classic;endFill=1;endSize=10;strokeWidth=1;fontSize=12;entryX=0;entryY=0.5;entryDx=0;entryDy=0;" edge="1" parent="1" source="YBYzwV7j20CpPhmQ1m0J-17" target="YBYzwV7j20CpPhmQ1m0J-22">
          <mxGeometry relative="1" as="geometry">
            <mxPoint x="850" y="1070" as="sourcePoint" />
            <mxPoint x="410" y="944.9999999999998" as="targetPoint" />
          </mxGeometry>
        </mxCell>
        <mxCell id="YBYzwV7j20CpPhmQ1m0J-24" value="&lt;table border=&quot;1&quot; width=&quot;100%&quot; style=&quot;width: 100% ; height: 100% ; border-collapse: collapse&quot;&gt;&lt;tbody&gt;&lt;tr&gt;&lt;td colspan=&quot;2&quot; align=&quot;center&quot;&gt;&lt;font color=&quot;#121212&quot;&gt;&lt;span style=&quot;font-size: 15px&quot;&gt;Darwin/Mac OS&lt;/span&gt;&lt;/font&gt;&lt;br&gt;&lt;/td&gt;&lt;/tr&gt;&lt;tr&gt;&lt;td align=&quot;center&quot; style=&quot;text-align: left&quot;&gt;&lt;font face=&quot;sans-serif&quot;&gt;&lt;span style=&quot;font-size: 12.32px&quot;&gt;2000&lt;/span&gt;&lt;/font&gt;&lt;br&gt;&lt;/td&gt;&lt;td align=&quot;center&quot;&gt;&amp;nbsp;William Jolitz and Lynne Jolitz /The FreeBSD Project&lt;br&gt;&lt;/td&gt;&lt;/tr&gt;&lt;tr&gt;&lt;td align=&quot;center&quot;&gt;&lt;br&gt;&lt;/td&gt;&lt;td align=&quot;center&quot;&gt;&lt;font style=&quot;font-size: 12px&quot;&gt;version 20.4.0 2021&lt;/font&gt;&lt;/td&gt;&lt;/tr&gt;&lt;/tbody&gt;&lt;/table&gt;" style="text;html=1;strokeColor=#FF0000;fillColor=#f5f5f5;overflow=fill;rounded=0;shadow=1;fontSize=12;align=center;" vertex="1" parent="1">
          <mxGeometry x="760" y="330" width="380" height="90" as="geometry" />
        </mxCell>
        <mxCell id="YBYzwV7j20CpPhmQ1m0J-25" style="edgeStyle=none;curved=1;html=1;startSize=10;endArrow=classic;endFill=1;endSize=10;strokeColor=#FF0000;strokeWidth=1;fontSize=12;exitX=0.5;exitY=1;exitDx=0;exitDy=0;entryX=0.5;entryY=0;entryDx=0;entryDy=0;" edge="1" parent="1" source="YBYzwV7j20CpPhmQ1m0J-16" target="YBYzwV7j20CpPhmQ1m0J-24">
          <mxGeometry relative="1" as="geometry">
            <mxPoint x="570" y="232.5" as="sourcePoint" />
            <mxPoint x="680" y="235" as="targetPoint" />
          </mxGeometry>
        </mxCell>
      </root>
    </mxGraphModel>
  </diagram>
</mxfile>
